<?xml version="1.0" standalone="no"?><!DOCTYPE svg PUBLIC "-//W3C//DTD SVG 1.1//EN" "http://www.w3.org/Graphics/SVG/1.1/DTD/svg11.dtd"><svg t="1517281628502" class="icon" style="" viewBox="0 0 1024 1024" version="1.1" xmlns="http://www.w3.org/2000/svg" p-id="3144" xmlns:xlink="http://www.w3.org/1999/xlink" width="25" height="25"><defs><style type="text/css"></style></defs><path d="M719.021495 506.499729c-38.903032 0-75.516928-15.160281-103.029538-42.672892l-51.229778-51.255361c-27.51261-27.51261-42.699498-64.101947-42.699498-103.030561s15.186887-75.516928 42.699498-103.055121l51.229778-51.229778c27.51261-27.51261 64.126506-42.699498 103.029538-42.699498 38.95522 0 75.570139 15.186887 103.081727 42.699498l51.229778 51.229778c27.51261 27.538193 42.647309 64.126506 42.647309 103.055121s-15.134699 75.517951-42.647309 103.030561l-51.229778 51.255361C794.590612 491.339448 757.976716 506.499729 719.021495 506.499729L719.021495 506.499729zM719.021495 143.191236" p-id="3145" fill="#2c2c2c"></path><path d="M719.021495 513.157359c-40.670282 0-78.949097-15.83771-107.762329-44.623313l-51.17759-51.255361c-28.812209-28.760021-44.675502-67.013253-44.675502-107.736746 0-40.696888 15.863293-78.975702 44.675502-107.762329l51.17759-51.229778c28.838815-28.78765 67.091024-44.649919 107.762329-44.649919 40.723493 0 79.002308 15.862269 107.763352 44.649919l51.229778 51.229778c28.786627 28.786627 44.623313 67.039859 44.623313 107.762329 0 40.723493-15.83771 79.002308-44.623313 107.736746L826.783825 468.534046C798.023804 497.319649 759.743966 513.157359 719.021495 513.157359zM719.021495 119.214149c-37.108153 0-72.03257 14.484899-98.347912 40.749076l-51.17759 51.229778c-26.28976 26.28976-40.775682 61.214177-40.775682 98.347912 0 37.160341 14.484899 72.059176 40.775682 98.323353l51.17759 51.255361c26.316366 26.264177 61.214177 40.72247 98.347912 40.72247 37.186947 0 72.084759-14.458293 98.348935-40.72247l51.229778-51.255361c26.264177-26.238594 40.723493-61.163011 40.723493-98.323353 0-37.159318-14.459317-72.083735-40.723493-98.347912l-51.229778-51.229778C791.106254 133.700071 756.181837 119.214149 719.021495 119.214149z" p-id="3146" fill="#2c2c2c"></path><path d="M326.197782 491.49499l-72.449056 0c-80.353073 0-145.729036-65.37494-145.729036-145.729036l0-72.449056c0-80.353073 65.375963-145.729036 145.729036-145.729036l72.449056 0c80.353073 0 145.729036 65.375963 145.729036 145.729036l0 72.449056C471.926818 426.120051 406.550855 491.49499 326.197782 491.49499L326.197782 491.49499zM253.748726 158.220534" p-id="3147" fill="#2c2c2c"></path><path d="M326.197782 498.152621l-72.449056 0c-84.019579 0-152.386666-68.366064-152.386666-152.386666l0-72.449056c0-84.019579 68.367087-152.385643 152.386666-152.385643l72.449056 0c84.046185 0 152.386666 68.366064 152.386666 152.385643l0 72.449056C478.584448 429.786557 410.242943 498.152621 326.197782 498.152621zM253.748726 134.245494c-76.686567 0-139.071406 62.384839-139.071406 139.071406l0 72.449056c0 76.686567 62.384839 139.072429 139.071406 139.072429l72.449056 0c76.713172 0 139.071406-62.385862 139.071406-139.072429l0-72.449056c0-76.686567-62.358233-139.071406-139.071406-139.071406L253.748726 134.245494z" p-id="3148" fill="#2c2c2c"></path><path d="M755.271094 911.442458l-72.448032 0c-80.354096 0-145.729036-65.401546-145.729036-145.755642l0-72.449056c0-80.353073 65.37494-145.729036 145.729036-145.729036l72.448032 0c80.354096 0 145.730059 65.375963 145.730059 145.729036l0 72.449056C901.001153 846.040912 835.626213 911.442458 755.271094 911.442458L755.271094 911.442458zM682.823062 578.142419" p-id="3149" fill="#2c2c2c"></path><path d="M755.271094 918.100088l-72.448032 0c-84.047208 0-152.386666-68.366064-152.386666-152.412248l0-72.449056c0-84.019579 68.339458-152.386666 152.386666-152.386666l72.448032 0c84.020602 0 152.386666 68.367087 152.386666 152.386666l0 72.449056C907.65776 849.734024 839.29272 918.100088 755.271094 918.100088zM682.823062 554.166355c-76.714196 0-139.072429 62.384839-139.072429 139.071406l0 72.449056c0 76.686567 62.358233 139.098012 139.072429 139.098012l72.448032 0c76.68759 0 139.072429-62.410422 139.072429-139.098012l0-72.449056c0-76.686567-62.384839-139.071406-139.072429-139.071406L682.823062 554.166355z" p-id="3150" fill="#2c2c2c"></path><path d="M326.197782 911.442458l-72.449056 0c-80.353073 0-145.729036-65.401546-145.729036-145.755642l0-72.449056c0-80.353073 65.375963-145.729036 145.729036-145.729036l72.449056 0c80.353073 0 145.729036 65.375963 145.729036 145.729036l0 72.449056C471.926818 846.040912 406.550855 911.442458 326.197782 911.442458L326.197782 911.442458zM253.748726 578.142419" p-id="3151" fill="#2c2c2c"></path><path d="M326.197782 918.100088l-72.449056 0c-84.019579 0-152.386666-68.366064-152.386666-152.412248l0-72.449056c0-84.019579 68.367087-152.386666 152.386666-152.386666l72.449056 0c84.046185 0 152.386666 68.367087 152.386666 152.386666l0 72.449056C478.584448 849.734024 410.242943 918.100088 326.197782 918.100088zM253.748726 554.166355c-76.686567 0-139.071406 62.384839-139.071406 139.071406l0 72.449056c0 76.686567 62.384839 139.098012 139.071406 139.098012l72.449056 0c76.713172 0 139.071406-62.410422 139.071406-139.098012l0-72.449056c0-76.686567-62.358233-139.071406-139.071406-139.071406L253.748726 554.166355z" p-id="3152" fill="#2c2c2c"></path></svg>