<svg width="154" height="36" viewBox="0 0 154 36" version="1.1" xmlns="http://www.w3.org/2000/svg" xmlns:xlink="http://www.w3.org/1999/xlink">
  <defs>
      <polygon id="path-1" points="0 0.0112548929 0 35.9694767 24.1736666 35.9694767 24.1736666 0.0112548929 2.51959618e-20 0.0112548929"></polygon>
  </defs>
  <g id="Page-1" stroke="none" stroke-width="1" fill="#ffffff" fill-rule="evenodd">
      <g id="Page-1-Copy-6">
          <path d="M100.877768,1.03219277 C107.779389,3.56951008 112.703911,10.1924242 112.703911,17.9623826 C112.703911,21.2247794 111.835556,24.2858675 110.31755,26.9263727 L100.877768,1.03219277 Z M104.615108,32.999719 C101.75535,34.8953364 98.3257644,36 94.6368715,36 C91.1551472,36 87.9036616,35.0151081 85.1444897,33.3106648 L87.7855432,26.0672411 L102.087097,26.0672411 L104.615108,32.999719 Z M89.6952777,20.8290721 L94.9363201,6.45140134 L100.177362,20.8290721 L89.6952777,20.8290721 Z M79.3299271,27.5450396 C77.582144,24.7686396 76.5698324,21.4832098 76.5698324,17.9623826 C76.5698324,9.93721835 81.8228712,3.13556801 89.0820771,0.794952681 L79.3299271,27.5450396 Z" id="Fill-4" fill="#E50113"></path>
          <path d="M43.5524,22.7526497 L43.5524,0.227129338 L35.6509662,0.227129338 L35.6509662,22.3305617 C35.6435679,22.4082186 35.6394063,22.4867891 35.6301583,22.5639892 C35.6435679,22.7467112 35.6509662,22.9321741 35.6509662,23.1185507 C35.6509662,27.1589925 32.3341951,30.4356561 28.2447592,30.4356561 C27.6020278,30.4356561 26.9777924,30.3552584 26.3836127,30.2031422 L26.3836127,35.1064891 C27.829527,35.6825204 29.4090739,36 31.0635291,36 C37.9805205,36 43.5903166,30.4580395 43.5903166,23.624234 C43.5903166,23.3309651 43.5732079,23.0413506 43.5524,22.7526497" id="Fill-6" fill="#ffffff"></path>
          <path d="M65.7489997,0.227129338 C68.8306148,0.227129338 71.7327859,0.985920103 74.2756052,2.322946 L74.2756052,8.72878563 C72.3142402,7.30399598 69.8915139,6.46064119 67.268478,6.46064119 C60.7412593,6.46064119 55.4478921,11.6789276 55.4478921,18.1131076 C55.4478921,24.5482018 60.7412593,29.7664882 67.268478,29.7664882 C69.8915139,29.7664882 72.3142402,28.9231334 74.2756052,27.4978866 L74.2756052,33.9037262 C71.7327859,35.2412092 68.8306148,36 65.7489997,36 C55.730273,36 47.6052142,27.9901864 47.6052142,18.1135647 C47.6052142,8.23694294 55.730273,0.227129338 65.7489997,0.227129338" id="Fill-8" fill="#ffffff"></path>
          <polygon id="Fill-10" fill="#ffffff" points="134.498838 14.201927 140.374534 0.227129338 149.008475 0.227129338 154 36 146.480623 36 143.221888 12.6424761 135.949986 29.9370414 133.04769 29.9370414 125.776712 12.6424761 122.517515 36 114.998138 36 119.989663 0.227129338 128.623603 0.227129338"></polygon>
          <g id="Group-14">
              <mask id="mask-2" fill="white">
                  <use xlink:href="#path-1"></use>
              </mask>
              <g id="Clip-13"></g>
              <path d="M0.142967392,32.6008117 L0.142967392,26.9648169 C3.01114612,29.3456613 8.75261618,30.3960204 12.4648417,29.5327179 C13.2112839,29.3507045 13.8317698,29.1104653 14.3351303,28.796412 C14.838026,28.4731893 15.2070641,28.1096211 15.4506106,27.6795745 C15.7025232,27.2490694 15.8196487,26.7855543 15.8196487,26.2812353 C15.8196487,25.6022384 15.6267635,24.9984309 15.2326272,24.4693544 C14.838026,23.9311084 14.3016659,23.4428359 13.6216877,22.9880317 C12.9426391,22.5327692 12.1376341,22.09447 11.197842,21.6809284 C10.2668807,21.2591343 9.26015972,20.8281707 8.17814383,20.3898716 C5.42709053,19.2647816 3.37181808,17.8829473 2.02162213,16.2448273 C0.671426184,14.6149598 -0.000185913383,12.645823 -0.000185913383,10.3369586 C-0.000185913383,8.52507775 0.360950834,6.96948265 1.09902697,5.67063181 C1.8371031,4.36352847 2.84382407,3.29620593 4.110359,2.45170072 C5.38526002,1.61636495 6.85351097,0.995594024 8.52208358,0.598557374 C10.1915858,0.201520724 11.9610164,0.0112548929 13.8317698,0.0112548929 C17.0824653,0.0112548929 19.8339834,0.811288327 22.6305855,2.17019899 L22.6305855,8.1197886 C20.4140332,6.61049917 14.3964817,5.83109697 11.8187927,6.41519014 C11.0793222,6.58253238 10.4597658,6.82919025 9.94803924,7.134991 C9.44514353,7.44125022 9.05054238,7.80527689 8.76563012,8.23532352 C8.48861918,8.66582861 8.35429676,9.14584867 8.35429676,9.6753837 C8.35429676,10.2626862 8.50535138,10.7839687 8.81582673,11.2387728 C9.1258373,11.7022879 9.57063507,12.140587 10.1409244,12.5541286 C10.7200446,12.9598763 11.4158254,13.3656239 12.2375626,13.7626605 C13.0513984,14.1596972 13.9823597,14.5654448 15.0141789,14.9872389 C16.4234024,15.5667474 17.6815712,16.1866014 18.8054176,16.8408407 C19.929264,17.4941632 20.8936897,18.2387215 21.6912581,19.0580108 C22.4962631,19.8855525 23.1083829,20.8281707 23.5364484,21.8876992 C23.9640492,22.9385168 24.1736666,24.1708892 24.1736666,25.5774809 C24.1736666,27.5223187 23.8046285,29.1439337 23.058651,30.467542 C22.311744,31.7833563 21.305023,32.8506789 20.0217559,33.6612572 C18.7468549,34.4805464 17.2618717,35.066932 15.5598347,35.4236231 C10.3417108,36.517537 4.38411645,36.1544273 0.142967392,32.6008117" id="Fill-12" fill="#ffffff" mask="url(#mask-2)"></path>
          </g>
      </g>
  </g>
</svg>